<svg xmlns="http://www.w3.org/2000/svg" viewBox="3.1 -87.4 72.1 102.5" width="72" height="103" role="presentation" aria-hidden="true">
<!-- 자동 생성 — scripts/emit-keycloak-theme-art.py
     in 크레인 집게발 (r). -->
<g font-family="system-ui, -apple-system, 'Segoe UI', Roboto, 'Helvetica Neue', sans-serif">
<polygon points="55.6,-61.9 26.0,-44.7 26.0,-50.2 55.6,-67.4" fill="#49525f" stroke="#3f4752" stroke-width="1.0" stroke-linejoin="round"/>
<polygon points="19.1,-48.7 26.0,-44.7 26.0,-50.2 19.1,-54.2" fill="#3d4550" stroke="#343b45" stroke-width="1.0" stroke-linejoin="round"/>
<polygon points="48.7,-71.4 55.6,-67.4 26.0,-50.2 19.1,-54.2" fill="#57616f" stroke="#4b535f" stroke-width="1.0" stroke-linejoin="round"/>
<polygon points="52.6,-19.4 48.7,-17.2 48.7,-59.6 52.6,-61.9" fill="#49525f" stroke="#3f4752" stroke-width="1.0" stroke-linejoin="round"/>
<polygon points="44.8,-19.4 48.7,-17.2 48.7,-59.6 44.8,-61.9" fill="#3d4550" stroke="#343b45" stroke-width="1.0" stroke-linejoin="round"/>
<polygon points="48.7,-64.1 52.6,-61.9 48.7,-59.6 44.8,-61.9" fill="#57616f" stroke="#4b535f" stroke-width="1.0" stroke-linejoin="round"/>
<polygon points="59.1,-6.8 48.7,-0.8 48.7,-13.4 59.1,-19.4" fill="#3f4752" stroke="#363d47" stroke-width="1.0" stroke-linejoin="round"/>
<polygon points="38.3,-6.8 48.7,-0.8 48.7,-13.4 38.3,-19.4" fill="#343b45" stroke="#2d333b" stroke-width="1.0" stroke-linejoin="round"/>
<polygon points="48.7,-25.4 59.1,-19.4 48.7,-13.4 38.3,-19.4" fill="#4b535f" stroke="#404752" stroke-width="1.0" stroke-linejoin="round"/>
</g>
</svg>
