<svg xmlns="http://www.w3.org/2000/svg" viewBox="-111.3 -78.5 222.5 145.8" width="223" height="146" role="presentation" aria-hidden="true">
<!-- 자동 생성 — scripts/emit-keycloak-theme-art.py
     나가는 쪽 판넬 — 긴 상자를 받친다. -->
<g font-family="system-ui, -apple-system, 'Segoe UI', Roboto, 'Helvetica Neue', sans-serif">
<polygon points="-29.4,-45.6 -79.0,-17.0 -79.0,-21.1 -29.4,-49.8" fill="#ad8617" stroke="#957314" stroke-width="1.0" stroke-linejoin="round"/>
<polygon points="-88.8,-22.6 -79.0,-17.0 -79.0,-21.1 -88.8,-26.8" fill="#977211" stroke="#82620f" stroke-width="1.0" stroke-linejoin="round"/>
<polygon points="-39.2,-55.4 -29.4,-49.8 -79.0,-21.1 -88.8,-26.8" fill="#c29b21" stroke="#a7851c" stroke-width="1.0" stroke-linejoin="round"/>
<polygon points="29.7,-11.5 -19.9,17.1 -19.9,13.0 29.7,-15.6" fill="#ad8617" stroke="#957314" stroke-width="1.0" stroke-linejoin="round"/>
<polygon points="-29.7,11.5 -19.9,17.1 -19.9,13.0 -29.7,7.4" fill="#977211" stroke="#82620f" stroke-width="1.0" stroke-linejoin="round"/>
<polygon points="19.9,-21.3 29.7,-15.6 -19.9,13.0 -29.7,7.4" fill="#c29b21" stroke="#a7851c" stroke-width="1.0" stroke-linejoin="round"/>
<polygon points="88.8,22.6 39.2,51.2 39.2,47.1 88.8,18.5" fill="#ad8617" stroke="#957314" stroke-width="1.0" stroke-linejoin="round"/>
<polygon points="29.4,45.6 39.2,51.2 39.2,47.1 29.4,41.5" fill="#977211" stroke="#82620f" stroke-width="1.0" stroke-linejoin="round"/>
<polygon points="79.0,12.9 88.8,18.5 39.2,47.1 29.4,41.5" fill="#c29b21" stroke="#a7851c" stroke-width="1.0" stroke-linejoin="round"/>
<polygon points="95.3,17.8 37.9,50.9 37.9,47.5 95.3,14.4" fill="#d8a81d" stroke="#ba9019" stroke-width="1.0" stroke-linejoin="round"/>
<polygon points="-95.3,-26.0 37.9,50.9 37.9,47.5 -95.3,-29.4" fill="#bd8f15" stroke="#a37b12" stroke-width="1.0" stroke-linejoin="round"/>
<polygon points="-37.9,-62.5 95.3,14.4 37.9,47.5 -95.3,-29.4" fill="#f2c229" stroke="#d0a723" stroke-width="1.0" stroke-linejoin="round"/>
<polygon points="-37.5,-59.3 89.6,14.1 37.5,44.2 -89.6,-29.1" fill="#ffce2b"/>
<line x1="-25.1" y1="-50.1" x2="-73.8" y2="-22.0" stroke="#a87f10" stroke-width="1.0" stroke-linecap="round"/>
<line x1="-10.9" y1="-42.0" x2="-59.7" y2="-13.9" stroke="#a87f10" stroke-width="1.0" stroke-linecap="round"/>
<line x1="3.2" y1="-33.8" x2="-45.5" y2="-5.7" stroke="#a87f10" stroke-width="1.0" stroke-linecap="round"/>
<line x1="17.3" y1="-25.7" x2="-31.4" y2="2.4" stroke="#a87f10" stroke-width="1.0" stroke-linecap="round"/>
<line x1="31.4" y1="-17.5" x2="-17.3" y2="10.6" stroke="#a87f10" stroke-width="1.0" stroke-linecap="round"/>
<line x1="45.5" y1="-9.4" x2="-3.2" y2="18.7" stroke="#a87f10" stroke-width="1.0" stroke-linecap="round"/>
<line x1="59.7" y1="-1.2" x2="10.9" y2="26.9" stroke="#a87f10" stroke-width="1.0" stroke-linecap="round"/>
<line x1="73.8" y1="6.9" x2="25.1" y2="35.0" stroke="#a87f10" stroke-width="1.0" stroke-linecap="round"/>
</g>
</svg>
